<svg width="149px" height="149px" viewBox="0 0 149 149" version="1.1" xmlns="http://www.w3.org/2000/svg" xmlns:xlink="http://www.w3.org/1999/xlink">
  <g id="sifo-logo-by-fromin-xusheng" stroke="none" stroke-width="1" fill="none" fill-rule="evenodd">
      <g id="group1" transform="translate(-12.000000, -12.000000)">
          <path d="M55.5757097,29.6393569 C41.2659748,29.674344 29.674344,41.2659748 29.6393569,55.5757097 L29.4867765,117.981093 C29.4866729,118.044662 29.4866729,118.044662 29.4867765,118.108232 C29.521885,132.467593 41.1909077,144.079693 55.5502683,144.044585 L117.955652,143.892004 C132.265387,143.857017 143.857017,132.265387 143.892004,117.955652 L144.044585,55.5502683 C144.044688,55.4866988 144.044688,55.4866988 144.044585,55.4231293 C144.009476,41.0637687 132.340454,29.451668 117.981093,29.4867765 L55.5757097,29.6393569 Z" id="矩形" stroke="#006CB9" stroke-width="8" transform="translate(86.765681, 86.765681) rotate(-45.000000) translate(-86.765681, -86.765681) "></path>
          <path d="M47.9405236,78.7992105 C56.1921902,78.7992105 62.4272798,76.588103 66.7288844,72.1691064 C70.8547177,67.8337908 72.9607782,61.5577215 72.9607782,53.3344614 L72.9607782,14.4292683 L65.7637399,14.4292683 L65.7637399,53.4213608 C65.7637399,59.6105307 64.357569,64.299881 61.6347107,67.4829747 C58.6497934,70.7529677 54.0861297,72.4330232 47.9405236,72.4330232 C41.7086298,72.4330232 37.1385744,70.7529677 34.2431407,67.4829747 C31.4307988,64.2966625 30.1173074,59.6105307 30.1173074,53.4213608 L30.1173074,14.4292683 L22.9170732,14.4292683 L22.9170732,53.3344614 C22.9170732,61.5577215 25.0263295,67.8337908 29.2384506,72.2560059 C33.4537674,76.588103 39.6888571,78.7992105 47.9405236,78.7992105 Z" id="路径" fill="#006CB9" fill-rule="nonzero" transform="translate(47.938926, 46.614239) rotate(135.000000) translate(-47.938926, -46.614239) "></path>
          <path d="M126.877109,78.7992105 C135.128776,78.7992105 141.363865,76.588103 145.66547,72.1691064 C149.791303,67.8337908 151.897364,61.5577215 151.897364,53.3344614 L151.897364,14.4292683 L144.700325,14.4292683 L144.700325,53.4213608 C144.700325,59.6105307 143.294154,64.299881 140.571296,67.4829747 C137.586379,70.7529677 133.022715,72.4330232 126.877109,72.4330232 C120.645215,72.4330232 116.07516,70.7529677 113.179726,67.4829747 C110.367384,64.2966625 109.053893,59.6105307 109.053893,53.4213608 L109.053893,14.4292683 L101.853659,14.4292683 L101.853659,53.3344614 C101.853659,61.5577215 103.962915,67.8337908 108.175036,72.2560059 C112.390353,76.588103 118.625442,78.7992105 126.877109,78.7992105 Z" id="路径" fill="#006CB9" fill-rule="nonzero" transform="translate(126.875511, 46.614239) rotate(225.000000) translate(-126.875511, -46.614239) "></path>
          <path d="M126.877109,159.433357 C135.128776,159.433357 141.363865,157.222249 145.66547,152.803253 C149.791303,148.467937 151.897364,142.191868 151.897364,133.968608 L151.897364,95.0634146 L144.700325,95.0634146 L144.700325,134.055507 C144.700325,140.244677 143.294154,144.934027 140.571296,148.117121 C137.586379,151.387114 133.022715,153.06717 126.877109,153.06717 C120.645215,153.06717 116.07516,151.387114 113.179726,148.117121 C110.367384,144.930809 109.053893,140.244677 109.053893,134.055507 L109.053893,95.0634146 L101.853659,95.0634146 L101.853659,133.968608 C101.853659,142.191868 103.962915,148.467937 108.175036,152.890152 C112.390353,157.222249 118.625442,159.433357 126.877109,159.433357 Z" id="路径" fill="#006CB9" fill-rule="nonzero" transform="translate(126.875511, 127.248386) rotate(315.000000) translate(-126.875511, -127.248386) "></path>
          <path d="M47.9405236,159.433357 C56.1921902,159.433357 62.4272798,157.222249 66.7288844,152.803253 C70.8547177,148.467937 72.9607782,142.191868 72.9607782,133.968608 L72.9607782,95.0634146 L65.7637399,95.0634146 L65.7637399,134.055507 C65.7637399,140.244677 64.357569,144.934027 61.6347107,148.117121 C58.6497934,151.387114 54.0861297,153.06717 47.9405236,153.06717 C41.7086298,153.06717 37.1385744,151.387114 34.2431407,148.117121 C31.4307988,144.930809 30.1173074,140.244677 30.1173074,134.055507 L30.1173074,95.0634146 L22.9170732,95.0634146 L22.9170732,133.968608 C22.9170732,142.191868 25.0263295,148.467937 29.2384506,152.890152 C33.4537674,157.222249 39.6888571,159.433357 47.9405236,159.433357 Z" id="路径" fill="#006CB9" fill-rule="nonzero" transform="translate(47.938926, 127.248386) rotate(45.000000) translate(-47.938926, -127.248386) "></path>
          <circle id="circle1" fill="#006CB9" transform="translate(88.000000, 87.000000) scale(1, -1) translate(-88.000000, -87.000000) " cx="88" cy="87" r="16"></circle>
      </g>
  </g>
</svg>